<svg width="16" height="16" viewBox="0 0 16 16" fill="none" xmlns="http://www.w3.org/2000/svg">
<path d="M2.18342 10.1971C1.61681 9.461 1.3335 9.09294 1.3335 8.00002C1.3335 6.9071 1.61681 6.53904 2.18342 5.80291C3.31481 4.33306 5.21224 2.66669 8.00016 2.66669C10.7881 2.66669 12.6855 4.33306 13.8169 5.80291C14.3835 6.53904 14.6668 6.9071 14.6668 8.00002C14.6668 9.09294 14.3835 9.461 13.8169 10.1971C12.6855 11.667 10.7881 13.3334 8.00016 13.3334C5.21224 13.3334 3.31481 11.667 2.18342 10.1971Z" stroke="#6B7280" strokeWidth="1.5"/>
<path d="M10 8C10 9.10457 9.10457 10 8 10C6.89543 10 6 9.10457 6 8C6 6.89543 6.89543 6 8 6C9.10457 6 10 6.89543 10 8Z" stroke="#6B7280" strokeWidth="1.5"/>
</svg>
